<svg width="52" height="52" viewBox="0 0 52 52" fill="none" xmlns="http://www.w3.org/2000/svg">
<path d="M23.8333 8.66667H8.66668C7.51741 8.66667 6.4152 9.12321 5.60255 9.93587C4.78989 10.7485 4.33334 11.8507 4.33334 13V43.3333C4.33334 44.4826 4.78989 45.5848 5.60255 46.3975C6.4152 47.2101 7.51741 47.6667 8.66668 47.6667H39C40.1493 47.6667 41.2515 47.2101 42.0641 46.3975C42.8768 45.5848 43.3333 44.4826 43.3333 43.3333V28.1667" stroke="black" stroke-width="3" stroke-linecap="round" stroke-linejoin="round"/>
<path d="M40.0833 5.41667C40.9453 4.55471 42.1144 4.07047 43.3333 4.07047C44.5523 4.07047 45.7214 4.55471 46.5833 5.41667C47.4453 6.27862 47.9295 7.44768 47.9295 8.66667C47.9295 9.88565 47.4453 11.0547 46.5833 11.9167L26 32.5L17.3333 34.6667L19.5 26L40.0833 5.41667Z" stroke="black" stroke-width="3" stroke-linecap="round" stroke-linejoin="round"/>
</svg>
