<svg width="52" height="52" viewBox="0 0 52 52" fill="none" xmlns="http://www.w3.org/2000/svg">
<path d="M32.5 47.6667V39C32.8014 36.2858 32.0232 33.5619 30.3333 31.4167C36.8333 31.4167 43.3333 27.0833 43.3333 19.5C43.5067 16.7917 42.7483 14.1267 41.1667 11.9167C41.7733 9.425 41.7733 6.825 41.1667 4.33333C41.1667 4.33333 39 4.33333 34.6667 7.58333C28.9467 6.5 23.0533 6.5 17.3333 7.58333C13 4.33333 10.8333 4.33333 10.8333 4.33333C10.1833 6.825 10.1833 9.425 10.8333 11.9167C9.25572 14.1177 8.49002 16.7977 8.66667 19.5C8.66667 27.0833 15.1667 31.4167 21.6667 31.4167C20.8217 32.4783 20.1933 33.6917 19.825 34.9917C19.4567 36.2917 19.3483 37.6567 19.5 39V47.6667" stroke="black" stroke-width="3" stroke-linecap="round" stroke-linejoin="round"/>
<path d="M19.5 39C9.72834 43.3333 8.66668 34.6667 4.33334 34.6667" stroke="black" stroke-width="3" stroke-linecap="round" stroke-linejoin="round"/>
</svg>
