<svg width="52" height="52" viewBox="0 0 52 52" fill="none" xmlns="http://www.w3.org/2000/svg">
<path d="M34.6667 17.3333C38.1145 17.3333 41.4211 18.703 43.8591 21.1409C46.297 23.5789 47.6667 26.8855 47.6667 30.3333V45.5H39V30.3333C39 29.1841 38.5435 28.0819 37.7308 27.2692C36.9181 26.4565 35.8159 26 34.6667 26C33.5174 26 32.4152 26.4565 31.6025 27.2692C30.7899 28.0819 30.3333 29.1841 30.3333 30.3333V45.5H21.6667V30.3333C21.6667 26.8855 23.0363 23.5789 25.4743 21.1409C27.9123 18.703 31.2189 17.3333 34.6667 17.3333Z" stroke="black" stroke-width="3" stroke-linecap="round" stroke-linejoin="round"/>
<path d="M13 19.5H4.33333V45.5H13V19.5Z" stroke="black" stroke-width="3" stroke-linecap="round" stroke-linejoin="round"/>
<path d="M8.66666 13C11.0599 13 13 11.0599 13 8.66667C13 6.27343 11.0599 4.33333 8.66666 4.33333C6.27343 4.33333 4.33333 6.27343 4.33333 8.66667C4.33333 11.0599 6.27343 13 8.66666 13Z" stroke="black" stroke-width="3" stroke-linecap="round" stroke-linejoin="round"/>
</svg>
